#N canvas 233 0 906 643 12;
#X text 194 38 This will interct with 8-encoder thing (see README);
#X obj 119 50 loadbang;
#X obj 119 84 tgl 25 0 empty empty empty 17 7 0 10 #fafff4 #000000 #e1e1e1 0 1;
#X obj 119 161 pi8encoder;
#X obj 114 437 tgl 25 0 empty empty switch 28 13 0 10 #ff00e7 #000000 #0400ff 0 1;
#X obj 182 437 tgl 25 0 empty empty empty 16 7 0 10 #48ffe4 #000000 #e1e1e1 0 1;
#X obj 219 437 tgl 25 0 empty empty empty 16 7 0 10 #48ffe4 #000000 #e1e1e1 0 1;
#X obj 251 437 tgl 25 0 empty empty empty 16 7 0 10 #48ffe4 #000000 #e1e1e1 0 1;
#X obj 283 437 tgl 25 0 empty empty empty 16 7 0 10 #48ffe4 #000000 #e1e1e1 0 1;
#X obj 320 437 tgl 25 0 empty empty empty 16 7 0 10 #48ffe4 #000000 #e1e1e1 0 1;
#X obj 357 437 tgl 25 0 empty empty empty 16 7 0 10 #48ffe4 #000000 #e1e1e1 0 1;
#X obj 389 437 tgl 25 0 empty empty empty 16 7 0 10 #48ffe4 #000000 #e1e1e1 0 1;
#X obj 421 437 tgl 25 0 empty empty empty 16 7 0 10 #48ffe4 #000000 #e1e1e1 0 1;
#X obj 220 469 vsl 20 128 0 254 0 0 empty empty empty 0 -9 0 10 #18ff2e #000000 #e1e1e1 0 1;
#X obj 185 469 vsl 20 128 0 254 0 0 empty empty empty 0 -9 0 10 #18ff2e #000000 #e1e1e1 0 1;
#X obj 286 469 vsl 20 128 0 254 0 0 empty empty empty 0 -9 0 10 #18ff2e #000000 #e1e1e1 0 1;
#X obj 253 469 vsl 20 128 0 254 0 0 empty empty empty 0 -9 0 10 #18ff2e #000000 #e1e1e1 0 1;
#X obj 358 469 vsl 20 128 0 254 0 0 empty empty empty 0 -9 0 10 #18ff2e #000000 #e1e1e1 0 1;
#X obj 323 469 vsl 20 128 0 254 0 0 empty empty empty 0 -9 0 10 #18ff2e #000000 #e1e1e1 0 1;
#X obj 424 469 vsl 20 128 0 254 0 0 empty empty empty 0 -9 0 10 #18ff2e #000000 #e1e1e1 0 1;
#X obj 391 469 vsl 20 128 0 254 0 0 empty empty empty 0 -9 0 10 #18ff2e #000000 #e1e1e1 0 1;
#X obj 671 128 bng 20 250 50 0 empty empty rainbow 0 -10 0 12 #fcfcfc #000000 #000000;
#N canvas 700 318 450 300 looper 0;
#X obj 84 29 inlet num;
#X obj 76 113 until;
#X obj 75 149 f;
#X obj 114 144 + 1;
#X obj 169 140 sel 0;
#X obj 87 71 t f f;
#X obj 114 170 mod;
#X obj 74 224 outlet nums;
#X connect 0 0 5 0;
#X connect 1 0 2 0;
#X connect 2 0 3 0;
#X connect 2 0 7 0;
#X connect 3 0 6 0;
#X connect 4 0 1 1;
#X connect 5 0 1 0;
#X connect 5 1 6 1;
#X connect 6 0 2 1;
#X connect 6 0 4 0;
#X restore 670 183 pd looper;
#X msg 673 155 8;
#X obj 741 184 * 0.125;
#X obj 675 214 pack 0 0;
#X msg 673 241 hsv \$1 \$2 1 1;
#X obj 674 352 bng 20 250 50 0 empty empty clear 0 -10 0 12 #fcfcfc #000000 #000000;
#N canvas 700 318 450 300 looper 0;
#X obj 84 29 inlet num;
#X obj 76 113 until;
#X obj 75 149 f;
#X obj 114 144 + 1;
#X obj 169 140 sel 0;
#X obj 87 71 t f f;
#X obj 114 170 mod;
#X obj 74 224 outlet nums;
#X connect 0 0 5 0;
#X connect 1 0 2 0;
#X connect 2 0 3 0;
#X connect 2 0 7 0;
#X connect 3 0 6 0;
#X connect 4 0 1 1;
#X connect 5 0 1 0;
#X connect 5 1 6 1;
#X connect 6 0 2 1;
#X connect 6 0 4 0;
#X restore 673 407 pd looper;
#X msg 676 379 8;
#X msg 673 433 rgb \$1 0 0 0;
#X obj 672 459 s pi8;
#X obj 673 268 s pi8;
#X obj 201 125 r pi8;
#X obj 119 124 metro 50;
#X obj 172 265 route switch button rotary;
#X obj 119 186 list trim;
#X obj 105 354 route 0 1 2 3 4 5 6 7;
#X obj 306 327 route 0 1 2 3 4 5 6 7;
#X text 154 601 rotaries are -2.14784e+08 - 2.14784e+08 \, so I mod here;
#X text 272 619 to wrap around;
#X obj 287 359 mod 255;
#X obj 346 360 mod 255;
#X obj 403 362 mod 255;
#X obj 462 363 mod 255;
#X obj 297 398 mod 255;
#X obj 356 399 mod 255;
#X obj 413 401 mod 255;
#X obj 472 402 mod 255;
#X obj 474 133 bng 20 250 50 0 empty empty reset_rotaries 0 -10 0 12 #fcfcfc #000000 #000000;
#N canvas 700 318 450 300 looper 0;
#X obj 84 29 inlet num;
#X obj 76 113 until;
#X obj 75 149 f;
#X obj 114 144 + 1;
#X obj 169 140 sel 0;
#X obj 87 71 t f f;
#X obj 114 170 mod;
#X obj 74 224 outlet nums;
#X connect 0 0 5 0;
#X connect 1 0 2 0;
#X connect 2 0 3 0;
#X connect 2 0 7 0;
#X connect 3 0 6 0;
#X connect 4 0 1 1;
#X connect 5 0 1 0;
#X connect 5 1 6 1;
#X connect 6 0 2 1;
#X connect 6 0 4 0;
#X restore 473 188 pd looper;
#X msg 476 160 8;
#X obj 472 240 s pi8;
#X msg 473 214 rotary \$1 0;
#X connect 1 0 2 0;
#X connect 2 0 34 0;
#X connect 3 0 36 0;
#X connect 21 0 23 0;
#X connect 22 0 24 0;
#X connect 22 0 25 0;
#X connect 23 0 22 0;
#X connect 24 0 25 1;
#X connect 25 0 26 0;
#X connect 26 0 32 0;
#X connect 27 0 29 0;
#X connect 28 0 30 0;
#X connect 29 0 28 0;
#X connect 30 0 31 0;
#X connect 33 0 3 0;
#X connect 34 0 3 0;
#X connect 35 0 4 0;
#X connect 35 1 37 0;
#X connect 35 2 38 0;
#X connect 36 0 35 0;
#X connect 37 0 5 0;
#X connect 37 1 6 0;
#X connect 37 2 7 0;
#X connect 37 3 8 0;
#X connect 37 4 9 0;
#X connect 37 5 10 0;
#X connect 37 6 11 0;
#X connect 37 7 12 0;
#X connect 38 0 41 0;
#X connect 38 1 42 0;
#X connect 38 2 43 0;
#X connect 38 3 44 0;
#X connect 38 4 45 0;
#X connect 38 5 46 0;
#X connect 38 6 47 0;
#X connect 38 7 48 0;
#X connect 41 0 14 0;
#X connect 42 0 13 0;
#X connect 43 0 16 0;
#X connect 44 0 15 0;
#X connect 45 0 18 0;
#X connect 46 0 17 0;
#X connect 47 0 20 0;
#X connect 48 0 19 0;
#X connect 49 0 51 0;
#X connect 50 0 53 0;
#X connect 51 0 50 0;
#X connect 53 0 52 0;
